HIERARCHY
ROOT hip
{
  OFFSET 0 0 0
  CHANNELS 6 Xposition Yposition Zposition Zrotation Yrotation Xrotation
  JOINT abdomen
  {
    OFFSET 0 20.6881 -0.73152
    CHANNELS 3 Zrotation Xrotation Yrotation
    JOINT chest
    {
      OFFSET 0 11.7043 -0.48768
      CHANNELS 3 Zrotation Xrotation Yrotation
      JOINT neck
      {
        OFFSET 0 22.1894 -2.19456
        CHANNELS 3 Zrotation Xrotation Yrotation
        JOINT head
        {
          OFFSET -0.24384 7.07133 1.2192
          CHANNELS 3 Zrotation Xrotation Yrotation
          JOINT leftEye
          {
            OFFSET 4.14528 8.04674 8.04672
            CHANNELS 3 Zrotation Xrotation Yrotation
            End Site
            {
              OFFSET 1 0 0
            }
          }
          JOINT rightEye
          {
            OFFSET -3.6576 8.04674 8.04672
            CHANNELS 3 Zrotation Xrotation Yrotation
            End Site
            {
              OFFSET 1 0 0
            }
          }
        }
      }
      JOINT rCollar
      {
        OFFSET -2.68224 19.2634 -4.8768
        CHANNELS 3 Zrotation Xrotation Yrotation
        JOINT rShldr
        {
          OFFSET -8.77824 -1.95073 1.46304
          CHANNELS 3 Zrotation Xrotation Yrotation
          JOINT rForeArm
          {
            OFFSET -28.1742 -1.7115 0.48768
            CHANNELS 3 Zrotation Xrotation Yrotation
            JOINT rHand
            {
              OFFSET -22.5879 0.773209 7.07136
              CHANNELS 3 Zrotation Xrotation Yrotation
              JOINT rThumb1
              {
                OFFSET -1.2192 -0.487915 3.41376
                CHANNELS 3 Zrotation Xrotation Yrotation
                JOINT rThumb2
                {
                  OFFSET -3.37035 -0.52449 3.41376
                  CHANNELS 3 Zrotation Xrotation Yrotation
                  End Site
                  {
                    OFFSET -1.78271 -1.18214 1.43049
                  }
                }
              }
              JOINT rIndex1
              {
                OFFSET -7.75947 0.938293 5.60832
                CHANNELS 3 Zrotation Xrotation Yrotation
                JOINT rIndex2
                {
                  OFFSET -2.54057 -0.884171 1.56538
                  CHANNELS 3 Zrotation Xrotation Yrotation
                  End Site
                  {
                    OFFSET -1.62519 -0.234802 1.16502
                  }
                }
              }
              JOINT rMid1
              {
                OFFSET -8.24714 1.18213 3.41376
                CHANNELS 3 Zrotation Xrotation Yrotation
                JOINT rMid2
                {
                  OFFSET -3.10165 -0.590103 1.0647
                  CHANNELS 3 Zrotation Xrotation Yrotation
                  End Site
                  {
                    OFFSET -2.48547 -0.328903 0.83742
                  }
                }
              }
              JOINT rRing1
              {
                OFFSET -8.82822 0.546677 1.51678
                CHANNELS 3 Zrotation Xrotation Yrotation
                JOINT rRing2
                {
                  OFFSET -2.60934 -0.819778 -0.0198488
                  CHANNELS 3 Zrotation Xrotation Yrotation
                  End Site
                  {
                    OFFSET -2.33842 -0.294052 0.168128
                  }
                }
              }
              JOINT rPinky1
              {
                OFFSET -8.27202 -0.0477905 -0.4584
                CHANNELS 3 Zrotation Xrotation Yrotation
                JOINT rPinky2
                {
                  OFFSET -1.82734 -0.647385 -0.700984
                  CHANNELS 3 Zrotation Xrotation Yrotation
                  End Site
                  {
                    OFFSET -1.69225 -0.51767 -0.607171
                  }
                }
              }
            }
          }
        }
      }
      JOINT lCollar
      {
        OFFSET 2.68224 19.2634 -4.8768
        CHANNELS 3 Zrotation Xrotation Yrotation
        JOINT lShldr
        {
          OFFSET 8.77824 -1.95073 1.46304
          CHANNELS 3 Zrotation Xrotation Yrotation
          JOINT lForeArm
          {
            OFFSET 28.1742 -1.7115 0.48768
            CHANNELS 3 Zrotation Xrotation Yrotation
            JOINT lHand
            {
              OFFSET 22.5879 0.773209 7.07136
              CHANNELS 3 Zrotation Xrotation Yrotation
              JOINT lThumb1
              {
                OFFSET 1.2192 -0.487915 3.41376
                CHANNELS 3 Zrotation Xrotation Yrotation
                JOINT lThumb2
                {
                  OFFSET 3.37035 -0.52449 3.41376
                  CHANNELS 3 Zrotation Xrotation Yrotation
                  End Site
                  {
                    OFFSET 1.78271 -1.18214 1.43049
                  }
                }
              }
              JOINT lIndex1
              {
                OFFSET 7.75947 0.938293 5.60832
                CHANNELS 3 Zrotation Xrotation Yrotation
                JOINT lIndex2
                {
                  OFFSET 2.54057 -0.884171 1.56538
                  CHANNELS 3 Zrotation Xrotation Yrotation
                  End Site
                  {
                    OFFSET 1.62519 -0.234802 1.16502
                  }
                }
              }
              JOINT lMid1
              {
                OFFSET 8.24714 1.18213 3.41376
                CHANNELS 3 Zrotation Xrotation Yrotation
                JOINT lMid2
                {
                  OFFSET 3.10165 -0.590103 1.0647
                  CHANNELS 3 Zrotation Xrotation Yrotation
                  End Site
                  {
                    OFFSET 2.48547 -0.328903 0.83742
                  }
                }
              }
              JOINT lRing1
              {
                OFFSET 8.82822 0.546677 1.51678
                CHANNELS 3 Zrotation Xrotation Yrotation
                JOINT lRing2
                {
                  OFFSET 2.60934 -0.819778 -0.0198488
                  CHANNELS 3 Zrotation Xrotation Yrotation
                  End Site
                  {
                    OFFSET 2.33842 -0.294052 0.168128
                  }
                }
              }
              JOINT lPinky1
              {
                OFFSET 8.27202 -0.0477905 -0.4584
                CHANNELS 3 Zrotation Xrotation Yrotation
                JOINT lPinky2
                {
                  OFFSET 1.82734 -0.647385 -0.700984
                  CHANNELS 3 Zrotation Xrotation Yrotation
                  End Site
                  {
                    OFFSET 1.69225 -0.51767 -0.607171
                  }
                }
              }
            }
          }
        }
      }
    }
  }
  JOINT rButtock
  {
    OFFSET -8.77824 4.35084 1.2192
    CHANNELS 3 Zrotation Xrotation Yrotation
    JOINT rThigh
    {
      OFFSET 0 -1.70687 -2.19456
      CHANNELS 3 Zrotation Xrotation Yrotation
      JOINT rShin
      {
        OFFSET 0 -36.8199 0.73152
        CHANNELS 3 Zrotation Xrotation Yrotation
        JOINT rFoot
        {
          OFFSET 0.73152 -45.1104 -5.12064
          CHANNELS 3 Zrotation Xrotation Yrotation
          End Site
          {
            OFFSET -1.1221 -3.69964 12.103
          }
        }
      }
    }
  }
  JOINT lButtock
  {
    OFFSET 8.77824 4.35084 1.2192
    CHANNELS 3 Zrotation Xrotation Yrotation
    JOINT lThigh
    {
      OFFSET 0 -1.70687 -2.19456
      CHANNELS 3 Zrotation Xrotation Yrotation
      JOINT lShin
      {
        OFFSET 0 -36.8199 0.73152
        CHANNELS 3 Zrotation Xrotation Yrotation
        JOINT lFoot
        {
          OFFSET -0.73152 -45.1104 -5.12064
          CHANNELS 3 Zrotation Xrotation Yrotation
          End Site
          {
            OFFSET 1.1221 -3.69964 12.103
          }
        }
      }
    }
  }
}
MOTION
Frames:	7
Frame Time:	0.00833333
30.0326 84.3737 -113.698 0.0 0.0 0.0 -1.03703 -0.00414447 -0.0285995 -0.285909 -0.00382821 -0.0495306 -5.42287e-15 7.95139e-16 -1.2424e-17 -1.57568e-14 9.54166e-15 -6.67792e-17 -0.0 0.0 0.0 -0.0 0.0 0.0 -2.53586e-15 8.92978e-18 1.98785e-16 -5.45172e-14 3.04389e-16 1.98785e-16 -9.56254e-13 2.92412e-13 -1.59028e-14 -1.09899e-11 -2.64682e-13 -7.95139e-14 -2.59197e-11 5.59735e-14 -1.94014e-13 -4.47751e-11 9.54166e-14 -3.34753e-13 -2.5914e-11 5.64548e-14 -2.06736e-13 7.73091 5.47488 0.417314 -2.59202e-11 5.59579e-14 -1.94014e-13 2.90554 0.965183 0.102902 -2.59095e-11 5.63555e-14 -1.92424e-13 10.2786 0.731801 0.0259123 -2.59211e-11 5.68524e-14 -1.84472e-13 2.22167 -0.733487 -0.20892 -2.7321e-15 7.76503e-18 -1.98785e-16 -5.84225e-14 5.09386e-16 -1.39149e-15 -9.62664e-13 -2.83069e-13 1.90833e-14 -1.09982e-11 3.1085e-13 -1.01778e-13 -2.59417e-11 5.40031e-14 -1.90833e-13 -4.47906e-11 9.22361e-14 -3.26007e-13 -2.59474e-11 5.4467e-14 -1.74931e-13 -7.73091 5.47488 -0.417314 -2.59415e-11 5.38706e-14 -1.90833e-13 -2.90554 0.965183 -0.102902 -2.59454e-11 5.397e-14 -1.90038e-13 -10.2786 0.731801 -0.0259123 -2.5935e-11 5.48646e-14 -1.97194e-13 -2.22167 -0.733487 0.20892 -2.03217e-16 0.0 -3.88251e-19 -0.272976 -1.9197 -0.0125382 -0.00938405 -2.07854 -0.077572 -0.513119 3.99654 0.140438 2.03217e-16 0.0 3.88251e-19 -1.30508 -5.55693 0.114032 -0.000203527 4.50981 -0.0271108 0.527516 1.04555 -0.081571
33.0682 82.9811 -117.3 -1.9261 63.5991 0.2321 -3.45265 2.85094 -1.54588 0.300038 -1.38479 -0.530861 -0.786968 -0.0381168 -2.54847 3.11147 6.32573 -5.02919 -0.0 0.0 0.0 -0.0 0.0 0.0 -1.81894e-14 3.04986e-14 1.10804e-13 20.7587 14.6705 -0.0816428 -6.75664 -3.82813 9.6013 -2.98904e-05 -0.00670436 -0.000942458 1.57397e-10 3.61483e-10 -5.34873e-11 2.73045e-10 6.25311e-10 -9.30341e-11 1.574e-10 3.61485e-10 -5.3501e-11 7.73091 5.47488 0.417314 1.57395e-10 3.61485e-10 -5.34878e-11 2.90554 0.965183 0.102902 1.57405e-10 3.61485e-10 -5.34859e-11 10.2786 0.731801 0.0259123 1.57393e-10 3.61485e-10 -5.34755e-11 2.22167 -0.733487 -0.20892 -1.83393e-14 3.04937e-14 1.10479e-13 -21.445 12.9223 -1.72327 8.19456 -5.10598 -10.9466 -0.194481 -9.80946 1.30679 -4.36319e-11 4.11568e-11 -5.23576e-11 -7.43575e-11 7.29015e-11 -9.13521e-11 -4.36366e-11 4.11571e-11 -5.23481e-11 -7.73091 5.47488 -0.417314 -4.36326e-11 4.11518e-11 -5.23603e-11 -2.90554 0.965183 -0.102902 -4.36355e-11 4.11578e-11 -5.23586e-11 -10.2786 0.731801 -0.0259123 -4.36257e-11 4.11594e-11 -5.23649e-11 -2.22167 -0.733487 0.20892 -2.03217e-16 0.0 -3.88251e-19 -0.897611 -9.66082 -0.928549 0.0431975 11.4276 0.142259 -0.443659 -5.49174 -0.105567 2.03217e-16 0.0 3.88251e-19 -0.360915 -8.58518 0.381203 -0.133005 15.5171 -0.328797 1.13639 -11.8457 3.04621
33.0772 82.9632 -115.865 -1.7398 62.8552 0.4005 -5.8433 5.85579 -3.1628 0.897078 -2.84119 -1.0406 -1.62343 -0.0765403 -5.24599 7.62286 12.8651 -10.5549 -0.0 0.0 0.0 -0.0 0.0 0.0 -3.52948e-14 6.19668e-14 2.2891e-13 42.7288 30.2518 -0.18737 -12.5388 -7.53245 19.9086 -8.18215e-05 0.000210596 2.90046e-05 3.55688e-10 7.54857e-10 -1.07336e-10 6.16867e-10 1.30573e-09 -1.86707e-10 3.55687e-10 7.54861e-10 -1.07351e-10 7.73091 5.47488 0.417314 3.55685e-10 7.54861e-10 -1.07337e-10 2.90554 0.965183 0.102902 3.55694e-10 7.54861e-10 -1.07335e-10 10.2786 0.731801 0.0259123 3.55682e-10 7.54861e-10 -1.07322e-10 2.22167 -0.733487 -0.20892 -3.53941e-14 6.19577e-14 2.28664e-13 -43.186 26.5477 -3.87722 14.7664 -9.88269 -22.7879 0.115225 -20.1628 2.82209 -5.03779e-11 9.37285e-11 -1.07735e-10 -8.50746e-11 1.65165e-10 -1.87631e-10 -5.03815e-11 9.37287e-11 -1.07733e-10 -7.73091 5.47488 -0.417314 -5.03795e-11 9.37182e-11 -1.07741e-10 -2.90554 0.965183 -0.102902 -5.03814e-11 9.37306e-11 -1.07738e-10 -10.2786 0.731801 -0.0259123 -5.03721e-11 9.37331e-11 -1.07743e-10 -2.22167 -0.733487 0.20892 -2.03217e-16 0.0 -3.88251e-19 -1.84364 -17.8235 -1.95853 -0.0240392 25.6832 0.408582 -0.453751 -15.5456 -0.359012 2.03217e-16 0.0 3.88251e-19 0.661424 -11.789 0.651441 -0.132242 27.1412 -0.699906 3.44944 -25.355 6.87573
33.0979 82.9249 -114.538 -1.5211 62.3482 0.6853 -7.82645 8.53672 -4.62605 1.40217 -4.1455 -1.49697 -2.37104 -0.113446 -7.64544 12.7733 18.3775 -15.8219 -0.0 0.0 0.0 -0.0 0.0 0.0 -4.94963e-14 9.1478e-14 3.32015e-13 62.4429 44.0111 -0.329453 -16.551 -10.1959 29.2444 -9.03328e-05 -0.0201131 -0.00282738 5.2403e-10 1.08434e-09 -1.60074e-10 9.08686e-10 1.87574e-09 -2.78433e-10 5.24027e-10 1.08434e-09 -1.6009e-10 7.73091 5.47488 0.417314 5.24026e-10 1.08434e-09 -1.60075e-10 2.90554 0.965183 0.102902 5.24035e-10 1.08434e-09 -1.60073e-10 10.2786 0.731801 0.0259123 5.24022e-10 1.08434e-09 -1.60058e-10 2.22167 -0.733487 -0.20892 -4.95536e-14 9.14657e-14 3.31835e-13 -61.4542 38.6061 -6.45335 18.9625 -13.0783 -33.6931 0.925721 -29.3625 4.43351 -7.90122e-11 1.23362e-10 -1.56691e-10 -1.33491e-10 2.1852e-10 -2.73404e-10 -7.9015e-11 1.23362e-10 -1.56695e-10 -7.73091 5.47488 -0.417314 -7.90146e-11 1.23348e-10 -1.56699e-10 -2.90554 0.965183 -0.102902 -7.90157e-11 1.23365e-10 -1.56696e-10 -10.2786 0.731801 -0.0259123 -7.90069e-11 1.23369e-10 -1.567e-10 -2.22167 -0.733487 0.20892 -2.03217e-16 0.0 -3.88251e-19 -2.95687 -25.1165 -3.00548 -0.227782 38.4378 0.731999 -0.564962 -24.4669 -0.65419 2.03217e-16 0.0 3.88251e-19 1.6149 -14.6404 0.934133 0.030335 37.5272 -1.13031 7.44814 -37.1213 11.4494
33.1169 82.9079 -113.204 -1.3871 61.9025 0.7395 -9.11344 10.4309 -5.66223 1.72642 -5.0707 -1.81672 -2.89003 -0.147337 -9.29973 17.0313 21.8999 -19.73 -0.0 0.0 0.0 -0.0 0.0 0.0 -5.64383e-14 1.16097e-13 3.97619e-13 76.3933 53.2158 -0.488604 -18.7485 -11.5148 35.7219 -1.4447e-05 -0.108533 -0.0152534 6.17502e-10 1.25408e-09 -2.10034e-10 1.0705e-09 2.16975e-09 -3.65291e-10 6.17497e-10 1.25409e-09 -2.1005e-10 7.73091 5.47488 0.417314 6.17496e-10 1.25409e-09 -2.10037e-10 2.90554 0.965183 0.102902 6.17505e-10 1.25409e-09 -2.10034e-10 10.2786 0.731801 0.0259123 6.17492e-10 1.25409e-09 -2.10018e-10 2.22167 -0.733487 -0.20892 -5.64751e-14 1.16083e-13 3.9747e-13 -73.2399 46.8997 -8.89761 21.1068 -14.471 -41.4398 1.8729 -35.7397 5.80461 -1.62367e-10 9.5652e-11 -1.89593e-10 -2.76156e-10 1.74606e-10 -3.32916e-10 -1.6237e-10 9.56512e-11 -1.89599e-10 -7.73091 5.47488 -0.417314 -1.6237e-10 9.56353e-11 -1.89602e-10 -2.90554 0.965183 -0.102902 -1.62371e-10 9.5655e-11 -1.89598e-10 -10.2786 0.731801 -0.0259123 -1.62363e-10 9.56584e-11 -1.89602e-10 -2.22167 -0.733487 0.20892 -2.03217e-16 0.0 -3.88251e-19 -3.90649 -30.2593 -3.87489 -0.500541 47.4417 1.06372 -0.77361 -30.5578 -1.00676 2.03217e-16 0.0 3.88251e-19 2.34304 -16.6113 1.23478 0.276999 44.8222 -1.53508 11.8588 -44.9918 15.8987
33.122 82.8865 -111.838 -1.3397 61.4089 0.7436 -9.55212 11.245 -6.06822 1.81067 -5.47718 -1.94222 -3.09047 -0.17278 -9.91248 18.8867 23.0503 -21.256 -0.0 0.0 0.0 -0.0 0.0 0.0 -5.56089e-14 1.4406e-13 4.2824e-13 82.1605 56.0739 -0.58044 -19.404 -11.7937 38.0034 3.84861e-05 -0.301621 -0.0423893 6.03018e-10 1.16224e-09 -2.31425e-10 1.04477e-09 2.01166e-09 -4.02691e-10 6.03014e-10 1.16225e-09 -2.3144e-10 7.73091 5.47488 0.417314 6.03012e-10 1.16225e-09 -2.31431e-10 2.90554 0.965183 0.102902 6.03023e-10 1.16225e-09 -2.31427e-10 10.2786 0.731801 0.0259123 6.03009e-10 1.16225e-09 -2.31412e-10 2.22167 -0.733487 -0.20892 -5.56605e-14 1.44048e-13 4.28068e-13 -77.5938 50.0862 -9.88663 21.798 -14.7861 -44.4564 2.34937 -38.2177 6.41852 -3.54631e-10 -8.27017e-12 -2.28878e-10 -6.05537e-10 3.49316e-12 -4.0657e-10 -3.54635e-10 -8.27257e-12 -2.28884e-10 -7.73091 5.47488 -0.417314 -3.54633e-10 -8.28505e-12 -2.28888e-10 -2.90554 0.965183 -0.102902 -3.54633e-10 -8.26821e-12 -2.28884e-10 -10.2786 0.731801 -0.0259123 -3.54626e-10 -8.26556e-12 -2.28888e-10 -2.22167 -0.733487 0.20892 -2.03217e-16 0.0 -3.88251e-19 -4.29388 -32.4261 -4.30126 -0.661311 51.2123 1.25006 -1.02278 -32.6908 -1.38852 2.03217e-16 0.0 3.88251e-19 2.73437 -17.3685 1.54014 0.419534 47.8143 -1.73942 14.1635 -47.8663 18.1784
33.1123 82.8613 -110.461 -1.6373 60.8912 0.4708 -9.42138 11.2923 -6.01498 1.72918 -5.51284 -1.92832 -3.06211 -0.192646 -9.78119 18.7573 22.6283 -20.9527 -0.0 0.0 0.0 -0.0 0.0 0.0 -4.91147e-14 1.73928e-13 4.3304e-13 82.0342 54.3975 -0.580373 -19.1352 -11.5436 37.2579 -0.000182381 -0.569027 -0.0799723 5.11572e-10 8.85356e-10 -2.33584e-10 8.85336e-10 1.53377e-09 -4.06793e-10 5.11572e-10 8.85365e-10 -2.33596e-10 7.73091 5.47488 0.417314 5.11568e-10 8.85365e-10 -2.33594e-10 2.90554 0.965183 0.102902 5.11579e-10 8.85364e-10 -2.33589e-10 10.2786 0.731801 0.0259123 5.11564e-10 8.85363e-10 -2.33577e-10 2.22167 -0.733487 -0.20892 -4.92061e-14 1.73919e-13 4.32807e-13 -77.1981 49.6772 -9.34991 21.703 -14.7276 -44.0601 2.291 -37.9286 6.34444 -6.23147e-10 -1.66823e-10 -2.71349e-10 -1.06568e-09 -2.58904e-10 -4.87901e-10 -6.23155e-10 -1.66828e-10 -2.71351e-10 -7.73091 5.47488 -0.417314 -6.23149e-10 -1.66834e-10 -2.71358e-10 -2.90554 0.965183 -0.102902 -6.23149e-10 -1.66823e-10 -2.71353e-10 -10.2786 0.731801 -0.0259123 -6.23144e-10 -1.66822e-10 -2.71358e-10 -2.22167 -0.733487 0.20892 -2.03217e-16 0.0 -3.88251e-19 -4.18628 -32.4731 -4.35095 -0.656567 51.2451 1.25853 -1.24693 -31.9967 -1.759 2.03217e-16 0.0 3.88251e-19 2.87291 -17.2579 1.84537 0.408919 47.7335 -1.73429 14.0296 -47.356 18.1266
